<svg width="36" height="23" viewBox="0 0 36 23" fill="none" xmlns="http://www.w3.org/2000/svg">
<path fill-rule="evenodd" clip-rule="evenodd" d="M0.614899 11.6564C0.614899 11.3248 0.746595 11.0069 0.981015 10.7725C1.21544 10.5381 1.53338 10.4064 1.8649 10.4064H31.3474L23.4799 2.54136C23.2452 2.30665 23.1133 1.9883 23.1133 1.65636C23.1133 1.32442 23.2452 1.00608 23.4799 0.771364C23.7146 0.536647 24.033 0.404785 24.3649 0.404785C24.6968 0.404785 25.0152 0.536647 25.2499 0.771364L35.2499 10.7714C35.3663 10.8875 35.4587 11.0254 35.5217 11.1773C35.5847 11.3291 35.6171 11.4919 35.6171 11.6564C35.6171 11.8208 35.5847 11.9836 35.5217 12.1354C35.4587 12.2873 35.3663 12.4253 35.2499 12.5414L25.2499 22.5414C25.0152 22.7761 24.6968 22.9079 24.3649 22.9079C24.033 22.9079 23.7146 22.7761 23.4799 22.5414C23.2452 22.3067 23.1133 21.9883 23.1133 21.6564C23.1133 21.3244 23.2452 21.0061 23.4799 20.7714L31.3474 12.9064H1.8649C1.53338 12.9064 1.21544 12.7747 0.981015 12.5402C0.746595 12.3058 0.614899 11.9879 0.614899 11.6564Z" fill="white"/>
</svg>
